HIERARCHY
ROOT joint_Root
{
	OFFSET 0.0 0.0 0.0
	CHANNELS 6 Xposition Yposition Zposition Zrotation Xrotation Yrotation 
	JOINT Hips
	{
		OFFSET 4.5925 91.4895 -427.239
		CHANNELS 6 Xposition Yposition Zposition Zrotation Xrotation Yrotation 
		JOINT Spine
		{
			OFFSET 15.7357 0.0 0.0
			CHANNELS 6 Xposition Yposition Zposition Zrotation Xrotation Yrotation 
			JOINT Chest
			{
				OFFSET 8.98455 -0.406207 0.0
				CHANNELS 6 Xposition Yposition Zposition Zrotation Xrotation Yrotation 
				JOINT Neck
				{
					OFFSET 16.3773 0.0 0.0
					CHANNELS 6 Xposition Yposition Zposition Zrotation Xrotation Yrotation 
					JOINT Head
					{
						OFFSET 6.45672 0.0 0.0
						CHANNELS 6 Xposition Yposition Zposition Zrotation Xrotation Yrotation 
						End Site
						{
							OFFSET 0.0 0.0 0.0
						}
					}
				}
				JOINT Shoulder_L
				{
					OFFSET 12.9942 -0.242716 4.98039
					CHANNELS 6 Xposition Yposition Zposition Zrotation Xrotation Yrotation 
					JOINT UpperArm_L
					{
						OFFSET 5.34809 0.0 0.0
						CHANNELS 6 Xposition Yposition Zposition Zrotation Xrotation Yrotation 
						JOINT LowerArm_L
						{
							OFFSET 24.3286 1.87007e-05 0.0
							CHANNELS 6 Xposition Yposition Zposition Zrotation Xrotation Yrotation 
							JOINT Hand_L
							{
								OFFSET 22.2916 0.0 0.0
								CHANNELS 6 Xposition Yposition Zposition Zrotation Xrotation Yrotation 
								End Site
								{
									OFFSET 0.0 0.0 0.0
								}
							}
						}
					}
				}
				JOINT Shoulder_R
				{
					OFFSET 12.9945 -0.242716 -4.98039
					CHANNELS 6 Xposition Yposition Zposition Zrotation Xrotation Yrotation 
					JOINT UpperArm_R
					{
						OFFSET -5.34813 0.0 0.0
						CHANNELS 6 Xposition Yposition Zposition Zrotation Xrotation Yrotation 
						JOINT LowerArm_R
						{
							OFFSET -24.3289 0.000322201 0.0
							CHANNELS 6 Xposition Yposition Zposition Zrotation Xrotation Yrotation 
							JOINT Hand_R
							{
								OFFSET -22.2915 -0.000108084 0.0
								CHANNELS 6 Xposition Yposition Zposition Zrotation Xrotation Yrotation 
								End Site
								{
									OFFSET 0.0 0.0 0.0
								}
							}
						}
					}
				}
			}
		}
		JOINT UpperLeg_L
		{
			OFFSET -2.19248 -6.46944 0.0
			CHANNELS 6 Xposition Yposition Zposition Zrotation Xrotation Yrotation 
			JOINT LowerLeg_L
			{
				OFFSET 39.0811 0.0 -1.23785e-05
				CHANNELS 6 Xposition Yposition Zposition Zrotation Xrotation Yrotation 
				JOINT Foot_L
				{
					OFFSET 40.9854 0.0 -1.26872e-05
					CHANNELS 6 Xposition Yposition Zposition Zrotation Xrotation Yrotation 
					JOINT Toes_L
					{
						OFFSET 11.7543 0.0 0.0
						CHANNELS 6 Xposition Yposition Zposition Zrotation Xrotation Yrotation 
						End Site
						{
							OFFSET 0.0 0.0 0.0
						}
					}
				}
			}
		}
		JOINT UpperLeg_R
		{
			OFFSET -2.19251 6.46944 0.0
			CHANNELS 6 Xposition Yposition Zposition Zrotation Xrotation Yrotation 
			JOINT LowerLeg_R
			{
				OFFSET -39.0811 -0.00228153 -0.0401928
				CHANNELS 6 Xposition Yposition Zposition Zrotation Xrotation Yrotation 
				JOINT Foot_R
				{
					OFFSET -40.9854 0.0 0.0
					CHANNELS 6 Xposition Yposition Zposition Zrotation Xrotation Yrotation 
					JOINT Toes_R
					{
						OFFSET -11.7543 0.0 0.0
						CHANNELS 6 Xposition Yposition Zposition Zrotation Xrotation Yrotation 
						End Site
						{
							OFFSET 0.0 0.0 0.0
						}
					}
				}
			}
		}
	}
}
MOTION
Frames:	5
Frame Time:	0.0333333
0.000000 0.000000 0.000000 0.000000 0.000000 -0.000000 -0.786123 90.162900 -3.436420 88.858000 -3.181500 12.937300 15.735700 0.000005 -0.000001 86.516300 76.105800 -87.957100 8.984550 -0.406207 -0.000000 19.956300 -1.803390 -2.573370 16.377300 -0.000001 -0.000001 11.551000 -4.368790 1.228060 6.456720 -0.000001 -0.000000 -8.706270 -2.002810 -8.278480 12.994200 -0.242716 4.980390 -91.276800 5.739570 -77.436100 5.348090 -0.000007 -0.000001 -48.146300 40.146700 -33.097600 24.328600 0.000019 0.000005 6.675450 17.213200 -21.578500 22.291600 -0.000001 0.000005 10.891700 5.239220 1.715860 12.994500 -0.242716 -4.980390 89.844600 0.601729 -75.523200 -5.348130 -0.000001 -0.000004 -73.405900 -13.124200 -79.317900 -24.328900 0.000322 -0.000009 15.322700 -5.799970 -110.245000 -22.291500 -0.000108 -0.000004 24.617000 5.259360 1.184160 -2.192480 -6.469440 -0.000000 -173.383000 -11.353000 -1.578220 39.081100 -0.000007 -0.000012 -0.198022 0.280736 35.198100 40.985400 -0.000006 -0.000013 -0.325999 4.126300 -70.312300 11.754300 -0.000000 0.000003 -0.000135 -0.001330 -16.628200 -2.192510 6.469440 -0.000001 175.027000 18.923200 179.667000 -39.081100 -0.002282 -0.040193 -0.079628 0.121201 34.378300 -40.985400 0.000008 0.000006 6.034110 12.472000 -71.372900 -11.754300 -0.000006 -0.000006 -0.002455 -0.034274 -17.966800
0.000000 0.000000 0.000000 0.000000 0.000000 -0.000000 -0.776247 90.170400 -3.442100 88.864300 -3.173640 12.921000 15.735700 0.000005 -0.000001 86.507400 76.089600 -87.952600 8.984550 -0.406207 -0.000000 19.988400 -1.810300 -2.580560 16.377300 -0.000001 -0.000001 11.495500 -4.383200 1.244150 6.456720 -0.000001 -0.000000 -8.629540 -2.071920 -8.170960 12.994200 -0.242716 4.980390 -91.282700 5.757040 -77.416900 5.348090 -0.000007 -0.000001 -48.039000 40.179100 -33.178200 24.328600 0.000019 0.000005 6.684490 17.250900 -21.563700 22.291600 -0.000001 0.000005 10.959400 5.239370 1.711980 12.994500 -0.242716 -4.980390 89.831700 0.651565 -75.516100 -5.348130 -0.000001 -0.000004 -73.325400 -13.111700 -79.267900 -24.328900 0.000322 -0.000009 15.340400 -5.792140 -110.198000 -22.291500 -0.000108 -0.000004 24.625000 5.257630 1.230100 -2.192480 -6.469440 -0.000000 -173.404000 -11.374000 -1.582190 39.081100 -0.000007 -0.000012 -0.197692 0.280611 35.165300 40.985400 -0.000006 -0.000013 -0.318227 4.106550 -70.293300 11.754300 -0.000000 0.000003 -0.000124 -0.001238 -16.624800 -2.192510 6.469440 -0.000001 175.014000 18.941900 179.659000 -39.081100 -0.002282 -0.040193 -0.078208 0.119243 34.351900 -40.985400 0.000008 0.000006 6.065960 12.511500 -71.364100 -11.754300 -0.000006 -0.000006 -0.002477 -0.034542 -17.977700
0.000000 0.000000 0.000000 0.000000 0.000000 -0.000000 -0.760843 90.177400 -3.449310 88.849300 -3.211850 12.862100 15.735700 0.000005 -0.000001 86.502100 76.101600 -87.935300 8.984550 -0.406207 -0.000000 19.964400 -1.809890 -2.556870 16.377300 -0.000001 -0.000001 11.351800 -4.366720 1.210340 6.456720 -0.000001 -0.000000 -8.544260 -2.124430 -8.094140 12.994200 -0.242716 4.980390 -91.290100 5.778470 -77.391500 5.348090 -0.000007 -0.000001 -48.122400 40.140600 -33.056000 24.328600 0.000019 0.000005 6.721630 17.327600 -21.589000 22.291600 -0.000001 0.000005 10.882600 5.239250 1.715180 12.994500 -0.242716 -4.980390 89.826400 0.672120 -75.514900 -5.348130 -0.000001 -0.000004 -73.267100 -13.050600 -79.221500 -24.328900 0.000322 -0.000009 15.367700 -5.763120 -110.070000 -22.291500 -0.000108 -0.000004 24.578000 5.259950 1.168340 -2.192480 -6.469440 -0.000000 -173.416000 -11.377300 -1.623930 39.081100 -0.000007 -0.000012 -0.195030 0.277056 35.143500 40.985400 -0.000006 -0.000013 -0.319292 4.068610 -70.289600 11.754300 -0.000000 0.000003 -0.000128 -0.001266 -16.625900 -2.192510 6.469440 -0.000001 175.032000 18.955900 179.612000 -39.081100 -0.002282 -0.040193 -0.080714 0.123114 34.307900 -40.985400 0.000008 0.000006 6.009470 12.548500 -71.319700 -11.754300 -0.000006 -0.000006 -0.002381 -0.033392 -17.931000
0.000000 0.000000 0.000000 0.000000 0.000000 -0.000000 -0.739108 90.182900 -3.448140 88.849100 -3.270810 12.802600 15.735700 0.000005 -0.000001 86.557700 76.108200 -87.977500 8.984550 -0.406207 -0.000000 19.953200 -1.781280 -2.535270 16.377300 -0.000001 -0.000001 11.233800 -4.336120 1.229860 6.456720 -0.000001 -0.000000 -8.576060 -2.090720 -8.118100 12.994200 -0.242716 4.980390 -91.301300 5.813730 -77.360500 5.348090 -0.000007 -0.000001 -48.056200 40.190300 -33.081000 24.328600 0.000019 0.000005 6.688250 17.294400 -21.527000 22.291600 -0.000001 0.000005 10.810900 5.237880 1.751100 12.994500 -0.242716 -4.980390 89.821100 0.691957 -75.505300 -5.348130 -0.000001 -0.000004 -73.260800 -13.009400 -79.228800 -24.328900 0.000322 -0.000009 15.420200 -5.737740 -109.923000 -22.291500 -0.000108 -0.000004 24.473900 5.255330 1.291340 -2.192480 -6.469440 -0.000000 -173.424000 -11.441500 -1.672940 39.081100 -0.000007 -0.000012 -0.198508 0.282202 35.123900 40.985400 -0.000006 -0.000013 -0.307920 4.065050 -70.277000 11.754300 -0.000000 0.000003 -0.000133 -0.001310 -16.627500 -2.192510 6.469440 -0.000001 175.055000 18.918200 179.544000 -39.081100 -0.002282 -0.040193 -0.078987 0.120645 34.293900 -40.985400 0.000008 0.000006 6.059720 12.568000 -71.316900 -11.754300 -0.000006 -0.000006 -0.002493 -0.034725 -17.985200
0.000000 0.000000 0.000000 0.000000 0.000000 -0.000000 -0.725464 90.188500 -3.442430 88.851100 -3.300970 12.793800 15.735700 0.000005 -0.000001 86.526400 76.107300 -87.936800 8.984550 -0.406207 -0.000000 19.954100 -1.795210 -2.513940 16.377300 -0.000001 -0.000001 11.118100 -4.300910 1.192740 6.456720 -0.000001 -0.000000 -8.563120 -2.022980 -8.083600 12.994200 -0.242716 4.980390 -91.302400 5.792020 -77.304100 5.348090 -0.000007 -0.000001 -48.117200 40.219100 -33.019600 24.328600 0.000019 0.000005 6.676600 17.311600 -21.473900 22.291600 -0.000001 0.000005 10.839100 5.238920 1.723730 12.994500 -0.242716 -4.980390 89.817400 0.706808 -75.512800 -5.348130 -0.000001 -0.000004 -73.256400 -12.957500 -79.246400 -24.328900 0.000322 -0.000009 15.493500 -5.687290 -109.672000 -22.291500 -0.000108 -0.000004 24.392100 5.256390 1.263080 -2.192480 -6.469440 -0.000000 -173.438000 -11.475600 -1.656920 39.081100 -0.000007 -0.000012 -0.195996 0.278895 35.098300 40.985400 -0.000006 -0.000013 -0.306281 4.021870 -70.274800 11.754300 -0.000000 0.000003 -0.000130 -0.001287 -16.626600 -2.192510 6.469440 -0.000001 175.048000 18.894500 179.547000 -39.081100 -0.002282 -0.040193 -0.079023 0.120839 34.262700 -40.985400 0.000008 0.000006 6.008490 12.584400 -71.288100 -11.754300 -0.000006 -0.000006 -0.002416 -0.033802 -17.947700
